# xmcd
#
# Track frame offsets: 
#        150
#        14430
#        30336
#        47119
#        60091
#        75471
#
# Disc length: 1262 seconds
#
# Revision: 0
# Processed by: cddbd v1.5.2PL0 Copyright (c) Steve Scherf et al.
# Submitted via: ExactAudioCopy v0.99pb4
#
DISCID=3604ec06
DTITLE=Black Joe Lewis And The Honeybears - Black Joe Lewis And The Ho
DTITLE=neybears
DYEAR=2007
DGENRE=
TTITLE0=Jungle
TTITLE1=If There's A Will
TTITLE2=Raise Your Window
TTITLE3=Evil
TTITLE4=Humpin'
TTITLE5=Please (Parts 1 and 2)
EXTD=
EXTT0=
EXTT1=
EXTT2=
EXTT3=
EXTT4=
EXTT5=
PLAYORDER=
